<svg xmlns="http://www.w3.org/2000/svg" viewBox="0 0 27.82 27.03"><defs><style>.cls-1{fill:#fff;}</style></defs><g id="Capa_2" data-name="Capa 2"><g id="Capa_1-2" data-name="Capa 1"><path class="cls-1" d="M0,13.48c0-1.54,0-3.08.06-4.61A16,16,0,0,1,.28,6.28a7,7,0,0,1,3.38-5,8.13,8.13,0,0,1,2.83-1A21.5,21.5,0,0,1,9.89,0c2.49,0,5,0,7.48,0,.88,0,1.75,0,2.63.09a9,9,0,0,1,3.94,1A6.92,6.92,0,0,1,27.4,5.57a12.32,12.32,0,0,1,.36,3q0,3.4.06,6.81c0,1.09,0,2.17-.06,3.25a9.93,9.93,0,0,1-.82,4.06A6.93,6.93,0,0,1,23,26.33a9.59,9.59,0,0,1-2.69.58c-1.92.14-3.84.12-5.76.12-1.35,0-2.7,0-4,0-1.13,0-2.25-.05-3.37-.16a7.7,7.7,0,0,1-4.81-2.11,7.19,7.19,0,0,1-2-3.83,17.42,17.42,0,0,1-.26-3.3c0-1.38,0-2.76,0-4.14H0M14.14,24.6h2.38c1.34,0,2.68,0,4-.16a6,6,0,0,0,2.08-.61A4.58,4.58,0,0,0,25,20.65,14.14,14.14,0,0,0,25.27,18c0-.86,0-1.71,0-2.57l-.06-6.75a11.64,11.64,0,0,0-.2-2.13,4.63,4.63,0,0,0-2-3,5.69,5.69,0,0,0-2.78-.9c-1.07-.08-2.16-.12-3.24-.13-2.47,0-4.95,0-7.42,0a15.06,15.06,0,0,0-2.92.22A4.8,4.8,0,0,0,3.6,4.59,5.22,5.22,0,0,0,2.67,7.3c-.08.85-.13,1.69-.13,2.54,0,2.7,0,5.41,0,8.12a11.31,11.31,0,0,0,.26,2.72,4.6,4.6,0,0,0,3.62,3.59,12.64,12.64,0,0,0,2.81.28c1.63,0,3.25,0,4.88.05"/><path class="cls-1" d="M20.05,13.17a6.56,6.56,0,0,1-6.84,6.3,6.51,6.51,0,0,1-6.43-6.69,6.53,6.53,0,0,1,6.8-6.21,6.54,6.54,0,0,1,6.47,6.6M9.11,13a4.3,4.3,0,1,0,4.43-4.17A4.26,4.26,0,0,0,9.11,13"/><path class="cls-1" d="M23,6.3a1.68,1.68,0,1,1-1.65-1.63A1.65,1.65,0,0,1,23,6.3"/></g></g></svg>