<svg xmlns="http://www.w3.org/2000/svg" viewBox="0 0 40.18 40.13"><defs><style>.cls-1{fill:#fff;}</style></defs><g id="Capa_2" data-name="Capa 2"><g id="Capa_1-2" data-name="Capa 1"><path class="cls-1" d="M26.11,22h-2.4c-1.78,0-2,.28-2,2.11,0,1.64,0,3.28,0,4.92,0,1.42-.61,2.15-1.7,2.13s-1.73-.78-1.75-2.14c0-1.8,0-3.6,0-5.4,0-1.31-.31-1.6-1.64-1.61h-5.4c-1.25,0-2.07-.68-2.09-1.67s.82-1.75,2.12-1.76c1.84,0,3.68,0,5.52,0,1.06,0,1.53-.47,1.51-1.53,0-1.72,0-3.44,0-5.16a3.81,3.81,0,0,1,.09-1.07,1.61,1.61,0,0,1,1.82-1.38,1.55,1.55,0,0,1,1.53,1.67c0,1.92,0,3.84,0,5.76,0,1.34.37,1.69,1.71,1.7,1.8,0,3.6,0,5.4,0,1.29,0,2.08.66,2.09,1.66S30.08,22,28.75,22c-.88,0-1.76,0-2.64,0"/><path class="cls-1" d="M20.08,40.12C9.66,40.47-.24,31.31,0,19.64A20.32,20.32,0,0,1,20,0,20.17,20.17,0,0,1,40.18,19.91a19.9,19.9,0,0,1-20.1,20.21m0-36.61a16.61,16.61,0,1,0,.08,33.21,16.61,16.61,0,0,0-.08-33.21"/><path class="cls-1" d="M26.22,21.83h-2.4c-1.77,0-2,.28-2,2.11,0,1.64,0,3.28,0,4.92,0,1.42-.6,2.14-1.7,2.13s-1.73-.79-1.74-2.15c0-1.8,0-3.6,0-5.4,0-1.3-.32-1.6-1.65-1.61-1.8,0-3.6,0-5.4,0-1.25,0-2.07-.69-2.08-1.67S10,18.41,11.3,18.4c1.84,0,3.68,0,5.52,0,1.06,0,1.53-.46,1.51-1.53,0-1.72,0-3.44,0-5.16a4.79,4.79,0,0,1,.09-1.07,1.61,1.61,0,0,1,1.82-1.37,1.55,1.55,0,0,1,1.53,1.67c0,1.92,0,3.84,0,5.76,0,1.34.37,1.69,1.72,1.7h5.4c1.28,0,2.07.66,2.08,1.67s-.78,1.74-2.12,1.76c-.88,0-1.76,0-2.64,0"/></g></g></svg>