<svg xmlns="http://www.w3.org/2000/svg" viewBox="0 0 26.59 27.08"><defs><style>.cls-1{fill:#fff;}</style></defs><g id="Capa_2" data-name="Capa 2"><g id="Capa_1-2" data-name="Capa 1"><path class="cls-1" d="M14.2,0C18.14,0,22.08,0,26,0c.48,0,.57.13.57.56q0,7.71,0,15.4a1,1,0,0,1-.34.8L19.73,23.1a1.05,1.05,0,0,1-.82.33c-1.46,0-2.92,0-4.38,0a1,1,0,0,0-.77.31c-1,1-2.09,2-3.12,3.05a.92.92,0,0,1-.73.3c-.82,0-1.63,0-2.45,0-.44,0-.61-.08-.59-.55,0-.86,0-1.72,0-2.58,0-.42-.1-.55-.54-.54-1.95,0-3.89,0-5.84,0-.4,0-.52-.1-.52-.5q0-9,0-18a1.83,1.83,0,0,1,.15-.73C.68,3,1.2,1.71,1.69.45A.63.63,0,0,1,2.38,0C6.32,0,10.26,0,14.2,0M9.7,22.94l.19.14a3,3,0,0,1,.32-.45c1-.95,1.95-1.89,2.9-2.84a1.05,1.05,0,0,1,.82-.33h5.68a.89.89,0,0,0,.69-.27q1.72-1.71,3.5-3.4a.81.81,0,0,0,.28-.66q0-6.1,0-12.21c0-.36-.07-.5-.48-.5q-9.52,0-19.06,0c-.41,0-.48.13-.48.5q0,8,0,16.05c0,.42.15.5.54.49,1.51,0,3,0,4.53,0,.44,0,.6.08.58.55,0,1,0,1.95,0,2.93"/><path class="cls-1" d="M11,10.45c0-1,0-2,0-3,0-.34.07-.5.46-.46.56.06,1.29-.23,1.64.12s.09,1,.1,1.56c0,1.6,0,3.2,0,4.81,0,.37-.07.56-.51.51s-1.26.22-1.6-.11-.08-1-.09-1.52,0-1.28,0-1.92"/><path class="cls-1" d="M19.7,10.52c0,1,0,2,0,3,0,.36-.11.46-.47.44s-.9,0-1.35,0c-.25,0-.38-.05-.38-.33q0-3.16,0-6.33c0-.27.1-.35.37-.34.48,0,1,0,1.45,0,.31,0,.38.11.38.38,0,1,0,2.09,0,3.14"/></g></g></svg>